<svg width="24" height="24" viewBox="0 0 24 24" fill="none" xmlns="http://www.w3.org/2000/svg">
<g clip-path="url(#clip0_21_469)">
<path d="M5.9812 8.28749C5.9812 6.61761 6.6293 5.01613 7.78292 3.83535C8.93653 2.65457 10.5012 1.99121 12.1326 1.99121C13.7641 1.99121 15.3287 2.65457 16.4824 3.83535C17.636 5.01613 18.2841 6.61761 18.2841 8.28749C18.2841 14.0994 12.6058 14.0994 12.6058 17.9741C12.6058 18.4193 12.5202 18.8602 12.3537 19.2715C12.1872 19.6828 11.9432 20.0566 11.6357 20.3714C11.3281 20.6862 10.9629 20.9359 10.5611 21.1063C10.1592 21.2767 9.72849 21.3644 9.29351 21.3644C8.85853 21.3644 8.42781 21.2767 8.02595 21.1063C7.62408 20.9359 7.25893 20.6862 6.95136 20.3714C6.64378 20.0566 6.3998 19.6828 6.23334 19.2715C6.06688 18.8602 5.9812 18.4193 5.9812 17.9741" stroke="black" stroke-width="2" stroke-linecap="round" stroke-linejoin="round"/>
<path d="M14.4987 8.28749C14.4987 7.64523 14.2495 7.02927 13.8058 6.57513C13.3621 6.12098 12.7603 5.86584 12.1328 5.86584C11.5053 5.86584 10.9035 6.12098 10.4598 6.57513C10.0161 7.02927 9.76685 7.64523 9.76685 8.28749V9.25615C10.2688 9.25615 10.7503 9.46026 11.1052 9.82358C11.4602 10.1869 11.6596 10.6797 11.6596 11.1935C11.6596 11.7073 11.4602 12.2 11.1052 12.5634C10.7503 12.9267 10.2688 13.1308 9.76685 13.1308" stroke="black" stroke-width="2" stroke-linecap="round" stroke-linejoin="round"/>
</g>
<defs>
<clipPath id="clip0_21_469">
<rect width="22.713" height="23.2478" fill="white" transform="translate(0.302979 0.053894)"/>
</clipPath>
</defs>
</svg>
