<svg width="24" height="25" viewBox="0 0 24 25" fill="none" xmlns="http://www.w3.org/2000/svg">
<path d="M11.6594 15.4379C13.2274 15.4379 14.4986 14.1369 14.4986 12.532C14.4986 10.927 13.2274 9.62598 11.6594 9.62598C10.0914 9.62598 8.82031 10.927 8.82031 12.532C8.82031 14.1369 10.0914 15.4379 11.6594 15.4379Z" stroke="black" stroke-width="2" stroke-linecap="round" stroke-linejoin="round"/>
<path d="M3.14209 7.68872V5.7514C3.14209 5.2376 3.3415 4.74483 3.69646 4.38151C4.05142 4.0182 4.53285 3.81409 5.03484 3.81409H6.92759" stroke="black" stroke-width="2" stroke-linecap="round" stroke-linejoin="round"/>
<path d="M16.3914 3.81409H18.2841C18.7861 3.81409 19.2675 4.0182 19.6225 4.38151C19.9774 4.74483 20.1769 5.2376 20.1769 5.7514V7.68872" stroke="black" stroke-width="2" stroke-linecap="round" stroke-linejoin="round"/>
<path d="M20.1769 17.3752V19.3126C20.1769 19.8264 19.9774 20.3191 19.6225 20.6824C19.2675 21.0458 18.7861 21.2499 18.2841 21.2499H16.3914" stroke="black" stroke-width="2" stroke-linecap="round" stroke-linejoin="round"/>
<path d="M6.92759 21.2499H5.03484C4.53285 21.2499 4.05142 21.0458 3.69646 20.6824C3.3415 20.3191 3.14209 19.8264 3.14209 19.3126V17.3752" stroke="black" stroke-width="2" stroke-linecap="round" stroke-linejoin="round"/>
</svg>
