<svg width="24" height="24" viewBox="0 0 24 24" fill="none" xmlns="http://www.w3.org/2000/svg">
<path d="M5.03491 11.9765C5.03491 11.9765 7.44344 7.13318 11.6595 7.13318C15.8747 7.13318 18.2842 11.9765 18.2842 11.9765C18.2842 11.9765 15.8747 16.8198 11.6595 16.8198C7.44344 16.8198 5.03491 11.9765 5.03491 11.9765Z" stroke="black" stroke-width="2" stroke-linecap="round" stroke-linejoin="round"/>
<path d="M11.6595 12.9451C11.9105 12.9451 12.1512 12.8431 12.3287 12.6614C12.5062 12.4798 12.6059 12.2334 12.6059 11.9765C12.6059 11.7196 12.5062 11.4732 12.3287 11.2915C12.1512 11.1099 11.9105 11.0078 11.6595 11.0078C11.4085 11.0078 11.1678 11.1099 10.9903 11.2915C10.8128 11.4732 10.7131 11.7196 10.7131 11.9765C10.7131 12.2334 10.8128 12.4798 10.9903 12.6614C11.1678 12.8431 11.4085 12.9451 11.6595 12.9451V12.9451Z" stroke="black" stroke-width="2" stroke-linecap="round" stroke-linejoin="round"/>
<path d="M20.1768 16.8198V18.7571C20.1768 19.2709 19.9774 19.7637 19.6225 20.127C19.2675 20.4903 18.7861 20.6945 18.2841 20.6945H5.03484C4.53285 20.6945 4.05142 20.4903 3.69646 20.127C3.3415 19.7637 3.14209 19.2709 3.14209 18.7571V16.8198" stroke="black" stroke-width="2" stroke-linecap="round" stroke-linejoin="round"/>
<path d="M20.1768 7.13318V5.19586C20.1768 4.68205 19.9774 4.18929 19.6225 3.82597C19.2675 3.46265 18.7861 3.25854 18.2841 3.25854H5.03484C4.53285 3.25854 4.05142 3.46265 3.69646 3.82597C3.3415 4.18929 3.14209 4.68205 3.14209 5.19586V7.13318" stroke="black" stroke-width="2" stroke-linecap="round" stroke-linejoin="round"/>
</svg>
